<?xml version="1.0" standalone="no"?>
<svg xmlns="http://www.w3.org/2000/svg" viewBox="0 0 108.254 125" width="108.254" height="125"><polygon fill="none" stroke="#e40909" stroke-width="3" points="106.754,32 106.754,93 54.127,123.5 1.5,93 1.5,32 54.127,1.5"></polygon><g fill="#0b0cac" color="#0b0cac" transform="translate(32.127 22.5) scale(0.275)"><svg width="160.0" height="160.0" x="0.0" y="0.0" viewBox="0 0 160 160"><path d="M155.245,88.978c0-1.033-0.457-2.014-1.247-2.679l-39.815-33.483c-0.464-0.39-1.021-0.653-1.617-0.763L28.767,36.574  c-1.514-0.277-3.038,0.466-3.746,1.836l-8.718,16.884c-2.396,4.641-1.734,10.188,1.689,14.134v0.001l7.226,8.33  C13.731,78.992,4.755,88.743,4.755,100.554c0,12.644,10.286,22.93,22.93,22.93c10.751,0,19.793-7.439,22.26-17.439  c2.292,1.99,5.229,3.118,8.306,3.118h65.775c0.403,7.962,6.988,14.321,15.049,14.321c8.319,0,15.088-6.769,15.088-15.088  c0-1.798-0.333-3.517-0.913-5.117c1.257-1.969,1.996-4.299,1.996-6.802V88.978z M148.245,96.476c0,3.136-2.551,5.687-5.686,5.687  H58.25c-1.649,0-3.214-0.714-4.295-1.961l-30.674-35.36v0.001c-1.534-1.77-1.832-4.256-0.757-6.336L30.05,43.93l61.987,11.449  l-1.617,6.858l-58.077-9.305c-1.36-0.211-2.646,0.71-2.864,2.073c-0.218,1.363,0.71,2.646,2.073,2.864l57.717,9.247l-2.253,9.556  c-0.815,3.46-0.018,7.043,2.188,9.829c2.207,2.787,5.51,4.385,9.064,4.385h49.975V96.476z M132.161,85.887l-8.022-10.141  c-0.475-0.6-1.196-0.949-1.961-0.949h-8.939c-1.381,0-2.5,1.119-2.5,2.5s1.119,2.5,2.5,2.5h7.729l4.817,6.09H98.271  c-2.017,0-3.892-0.907-5.144-2.488c-1.253-1.581-1.705-3.615-1.242-5.579l5.076-21.531l13.424,2.479l32.247,27.119H132.161z   M27.684,116.483c-8.784,0-15.93-7.146-15.93-15.93s7.146-15.93,15.93-15.93c1.36,0,2.674,0.19,3.935,0.512l6.133,7.07L26.253,97.36  c-1.764,0.79-2.553,2.861-1.762,4.625c0.583,1.299,1.859,2.069,3.196,2.069c0.479,0,0.965-0.099,1.43-0.308l13.427-6.019  l0.977,1.126c0.06,0.559,0.094,1.125,0.094,1.699C43.614,109.337,36.468,116.483,27.684,116.483z M139.074,116.483  c-4.201,0-7.661-3.22-8.049-7.321h11.534c1.623,0,3.17-0.318,4.597-0.875c0,0.037,0.005,0.072,0.005,0.109  C147.162,112.855,143.534,116.483,139.074,116.483z"></path></svg></g><path fill="#0b0cac" fill-rule="nonzero" d="M15.48 28Q14.22 28 13.01 27.29Q11.79 26.57 9.91 25.09L9.91 25.09Q8.51 23.97 7.52 23.28Q6.52 22.60 5.36 22.12Q4.20 21.64 3.00 21.64L3.00 21.64Q2.58 21.64 2.35 21.67L2.35 21.67L6.52 2.27Q4.65 3.02 3.63 4.58Q2.60 6.13 2.60 8.37L2.60 8.37Q2.60 9.41 2.80 9.81Q3.00 10.22 3.00 10.28L3.00 10.28Q1.48 10.28 0.74 9.65Q0 9.02 0 7.56L0 7.56Q0 5.77 1.47 4.07Q2.94 2.38 5.24 1.33Q7.53 0.28 9.83 0.28L9.83 0.28Q10.22 0.28 10.95 0.34L10.95 0.34L6.64 20.44Q7.42 20.64 8.25 21.01Q9.07 21.39 10.25 22.04L10.25 22.04Q12.07 23.02 13.36 23.53Q14.64 24.05 16.04 24.05L16.04 24.05Q17.30 24.05 18.40 23.60L18.40 23.60Q18.17 25.65 17.40 26.82Q16.63 28 15.48 28L15.48 28ZM17.84 21L17.39 1.88Q15.40 2.63 14.31 4.21Q13.22 5.80 13.22 8.09L13.22 8.09Q13.22 9.13 13.41 9.53Q13.61 9.94 13.61 10.00L13.61 10.00Q12.10 10.00 11.35 9.37Q10.61 8.74 10.61 7.28L10.61 7.28Q10.61 5.49 12.08 3.79Q13.55 2.10 15.85 1.05Q18.14 0 20.44 0L20.44 0Q20.83 0 21.56 0.06L21.56 0.06L21.81 17.28L27.69 0.14L29.65 0.14L21.87 21L17.84 21ZM30.13 21L34.16 2.30Q32.40 2.35 31.46 3.64Q30.52 4.93 30.52 8.09L30.52 8.09Q30.52 9.13 30.72 9.53Q30.91 9.94 30.91 10.00L30.91 10.00Q29.40 10.00 28.66 9.37Q27.92 8.74 27.92 7.28L27.92 7.28Q27.92 5.29 28.90 3.65Q29.88 2.02 32.02 1.01Q34.16 0 37.46 0L37.46 0Q38.14 0 39.26 0.14L39.26 0.14Q41.27 0.34 42.11 0.34L42.11 0.34Q43.60 0.34 44.63 0L44.63 0Q44.55 0.25 44.32 1.11Q44.10 1.96 43.53 2.56Q42.95 3.16 41.97 3.36L41.97 3.36Q40.32 3.36 38.05 2.83L38.05 2.83L36.88 8.40L40.96 8.40L40.52 10.47L36.43 10.47L34.16 21L30.13 21Z" transform="translate(31.811, 74.5)"></path></svg>