<?xml version="1.0" encoding="UTF-8" standalone="no"?>
<!-- Created with Inkscape (http://www.inkscape.org/) -->

<svg
   version="1.1"
   id="svg1"
   width="1111"
   height="793"
   viewBox="0 0 1111 793"
   sodipodi:docname="lvf-logo+txt-alpha.png"
   xml:space="preserve"
   inkscape:export-filename="lvf-logo+txt-alpha.svg"
   inkscape:export-xdpi="96"
   inkscape:export-ydpi="96"
   xmlns:inkscape="http://www.inkscape.org/namespaces/inkscape"
   xmlns:sodipodi="http://sodipodi.sourceforge.net/DTD/sodipodi-0.dtd"
   xmlns="http://www.w3.org/2000/svg"
   xmlns:svg="http://www.w3.org/2000/svg"><defs
     id="defs1" /><sodipodi:namedview
     id="namedview1"
     pagecolor="#ffffff"
     bordercolor="#000000"
     borderopacity="0.25"
     inkscape:showpageshadow="2"
     inkscape:pageopacity="0.0"
     inkscape:pagecheckerboard="0"
     inkscape:deskcolor="#d1d1d1"
     showgrid="false"
     showguides="true"><sodipodi:guide
       position="869.11833,80.290721"
       orientation="0,-1"
       id="guide32"
       inkscape:locked="false" /></sodipodi:namedview><g
     inkscape:groupmode="layer"
     inkscape:label="Image"
     id="g1"><path
       id="path1"
       style="fill:#ff0000;fill-opacity:1;stroke:none"
       d="m 558.04102,0.12109375 c -6.87524,1.37346855 -14.94343,8.02216255 -21,11.56835925 -13.97252,8.181142 -28.10603,16.085705 -42,24.400391 -43.58724,26.084324 -87.93803,51.068813 -132,76.349606 -15.05278,8.63664 -29.90559,17.63679 -45,26.19532 -5.02761,2.85064 -14.1406,5.92188 -16.39649,11.69726 -2.25958,5.78491 -0.60351,14.80164 -0.60351,20.95703 v 47 160 52 c 0,5.51483 -1.83256,15.13087 1.60351,19.78906 3.38568,4.58987 10.55851,7.12211 15.39649,9.86524 10.06259,5.70547 19.89525,11.80424 30,17.4375 33.61428,18.73945 66.81537,38.4258 100,57.91797 26.91233,15.8079 54.08734,31.17042 81,46.97851 7.14331,4.19586 22.68873,17.13776 31,16.28907 6.32574,-0.64588 13.65204,-7.08582 19,-10.27735 12.86858,-7.67955 26.06758,-14.82819 39,-22.40039 45.83738,-26.83871 91.47034,-54.44307 138,-80.05664 15.14218,-8.33544 30.17581,-17.05384 45,-25.94336 4.82569,-2.89377 14.00411,-6.1676 16.25781,-11.65429 1.9704,-4.79709 0.74219,-11.84376 0.74219,-16.94532 v -35 -124 -88 c 0,-9.15801 3.38926,-26.80995 -1.17774,-34.87109 -4.96869,-8.76983 -24.18177,-15.51887 -32.82226,-20.50586 -28.66968,-16.5471 -57.08703,-33.596152 -86,-49.714844 -34.65717,-19.320965 -68.58241,-40.010518 -103,-59.757813 l -26,-14.9999999 c -3.21228,-1.8428285 -7.05274,-5.10692856 -11,-4.31835935 z m 0,16.55468725 c 10.02368,-1.380548 27.54999,13.369945 36,18.41211 30.4187,18.150982 61.57993,35.049335 92,53.201171 28.10247,16.768848 56.74052,32.683058 85,49.189458 8.83059,5.15801 27.34727,11.42927 32.82226,20.18945 4.4522,7.12383 1.17774,24.33698 1.17774,32.62109 v 84 117 34 c 0,4.42139 1.09821,10.66578 -0.74219,14.78906 -2.2301,4.996 -10.79992,7.94349 -15.25781,10.61133 -13.52739,8.09536 -27.46222,15.52153 -41,23.59961 -43.68396,26.06654 -88.23652,50.66378 -132,76.59766 -12.55962,7.44268 -25.44014,14.36182 -38,21.80469 -5.12036,3.03423 -11.8996,8.84509 -18,9.26757 -9.63243,0.66705 -23.88819,-11.86536 -32,-16.51953 -27.70496,-15.89574 -55.06607,-32.48823 -83,-47.97656 -31.6358,-17.54091 -62.7078,-36.23196 -94,-54.38086 -9.40096,-5.45238 -30.17484,-12.68208 -35.82032,-22.05273 -4.41857,-7.3342 -1.17968,-24.29573 -1.17968,-32.74024 v -84 -117 -34 c 0,-4.48266 -1.06882,-10.672 0.74218,-14.87109 2.34076,-5.42736 11.42982,-8.42286 16.25782,-11.16406 14.08311,-7.9961 27.92952,-16.42585 42,-24.44727 43.47304,-24.783471 86.71739,-50.01803 130,-75.132812 12.34746,-7.164605 24.69099,-14.344859 37,-21.574219 5.27294,-3.096927 11.85059,-8.576839 18,-9.423828 z M 709.90039,625.86133 c -10.38109,0.13892 -20.34624,1.9835 -27.64844,8.80664 -8.52989,7.97039 -11.66122,37.62878 6.78907,32.62109 -3.6765,-11.30273 -6.11489,-25.21167 7,-31 4.10199,17.22966 1,38.30239 1,56 0,5.88922 -2.02289,16.34394 0.60351,21.68164 2.0142,4.09332 15.72463,3.72875 17.07813,-0.83008 3.53589,-11.91008 0.31836,-29.40174 0.31836,-41.85156 4.46069,0 16.57802,2.19659 17.57421,-4.03906 1.2555,-7.85796 -11.50696,-3.4867 -15.25585,-5.98828 -3.8487,-2.56824 -3.1301,-14.90278 -2,-18.90039 1.45729,-5.15484 8.78914,-2.09869 12.68164,-2.07617 8.94569,0.0518 11.8189,-4.49227 12,-12.9961 -8.9635,0 -19.75954,-1.56665 -30.14063,-1.42773 z m 322.06641,5.67578 c -1.1962,-0.16017 -2.4985,-0.0734 -3.8828,0.32812 -10.8816,3.15613 -5.124,20.20471 5.9394,16.90625 9.5386,-2.84374 6.3169,-16.11319 -2.0566,-17.23437 z m 46.0879,21.65234 c -4.2399,-0.45421 -9.9603,1.01441 -11.9238,3.53321 -3.1412,4.02929 -2.7659,10.8039 -4.1289,15.5664 -3.0485,10.65093 -10.4824,21.02308 -10.961,32 -16.433,1.67981 -11,-23.97548 -11,-35 0,-4.25933 1.5989,-11.88763 -4.0586,-12.85156 -19.1866,-3.26898 -12.8783,20.96059 -12.9414,33.85156 -0.024,4.97864 -0.4242,13.4776 -7.0117,14.19922 -6.3405,0.69451 -6.9629,-6.75592 -6.9863,-11.19922 -0.047,-8.9995 0,-18.00038 0,-27 0,-3.29113 0.8821,-8.48498 -3.1484,-9.68164 -4.8947,-1.45313 -10.02009,0.5246 -14.85158,0.82813 -12.99659,0.81646 -22.11245,-3.18468 -28.96485,11.85351 -5.26179,11.5476 -1.15598,42.44366 -23.03515,37.56641 -15.10799,-3.36779 -13.66009,-33.61287 -4.4668,-42.22852 1.8604,-1.74353 3.99295,-1.88659 5.81445,0 2.6135,2.70691 1.5706,8.79987 4.9668,10.5 8.80149,4.40613 5.69914,-12.70446 1.49805,-16.0332 -20.45328,-16.20597 -34.7856,14.08644 -34.8125,30.19531 -0.01,5.0899 0.70419,13.60272 -6,15.0293 -4.5566,0.96966 -6.54334,-4.51801 -6.89454,-8.0293 -1.03619,-10.35924 2.67357,-23.44935 -2.67382,-32.95898 -6.1194,-10.88262 -15.30865,-4.77905 -24.43164,-5.33399 -5.1194,-0.3114 -9.57302,-2.4732 -14.94141,-1.55859 -5.4365,0.92627 -4.05859,7.7165 -4.05859,11.85156 0,8.07817 4.18419,32.95392 -6.0918,35.99805 -8.60049,2.54779 -7.9082,-10.14686 -7.9082,-14.99805 0,-6.97369 3.34735,-25.87293 -1.02735,-31.39648 -2.8875,-3.64581 -12.15856,-1.30584 -15.97265,-0.73242 -10.44689,1.57049 -18.27072,-3.95098 -26.47071,6.16992 -8.23469,10.16369 -10.46743,28.99939 -5.14843,40.95898 4.11209,9.24578 15.86775,15.68463 25.61914,10.68164 3.49299,-1.79218 6.2509,-4.95563 9,-7.68164 4.77009,12.122 17.48731,10.19 27,5 2.51179,4.09485 14.58498,7.10602 17.39648,1.56641 3.9089,-7.70177 0.40734,-23.94246 0.61914,-32.56641 0.104,-4.23394 0.45397,-10.90387 5.04297,-12.86328 4.51579,-1.92817 7.41473,3.149 7.83203,6.86328 1.2694,11.29833 -2.36835,23.52516 3.52734,33.98633 6.0007,10.64745 22.26694,9.16661 27.58204,-0.98633 7.10429,4.20886 11.3529,7.97516 20,8 l 1,-3 3,3 h -4 c -0.1344,3.13141 -1.71756,7.75324 -0.38086,10.6836 1.38149,3.02855 11.69961,3.5213 8.29492,8.9082 -2.7394,4.33435 -9.99607,-2.59893 -13.91406,3.4082 7.75139,3.06299 32.92764,2.73228 22.97265,-12.60547 -2.2388,-3.4494 -12.79648,-2.48706 -12.05078,-7.30664 0.4581,-2.9608 4.87953,-3.46777 7.07813,-4.44922 5.02789,-2.24443 9.6246,-5.6507 12,-10.63867 h 3 c 7.33439,18.91868 22.88331,10.46149 35,4 2.83763,7.98235 12.40068,9.88745 19.98628,7.29883 2.948,-1.00598 5.7265,-4.63684 9.0528,-3.86719 7.1785,1.66101 10.7353,5.50025 18.9609,4.43555 4.1899,-0.54235 7.8231,-4.90924 12,-4.43359 3.8668,0.44037 7.0167,3.74444 11,4.35351 15.0343,2.29883 29.0434,-7.45826 37,-19.78711 l -10,3 c -2.7885,-11.31744 -4.6302,-22.84864 -8.0879,-34 -0.9668,-3.11803 -1.4958,-9.01715 -4.3457,-10.97265 -0.89,-0.61071 -2.1394,-0.97555 -3.5527,-1.12696 z m -328.73829,2.63477 c -1.60615,0.40051 -2.93233,1.28021 -3.67188,2.7832 -1.6516,3.35638 -0.60351,9.02979 -0.60351,12.68164 v 30 c 0,3.53107 -1.30116,10.45654 1.02734,13.39649 2.3438,2.95921 13.58804,2.67926 15.36914,-0.83008 5.56979,-10.97447 -2.24699,-28.64399 1.03711,-40.56641 4.1105,-14.92234 13.76244,5.39983 20.70703,-2.65234 4.2472,-4.92456 -0.78203,-12.71381 -6.14062,-14.0293 -5.405,-1.32684 -9.61191,2.1969 -14,4.68164 -1.56908,-3.55343 -8.90616,-6.66637 -13.72461,-5.46484 z m 65.72461,8.00781 c 4.74169,-0.78906 6.70923,3.51594 6.95703,7.45703 0.4983,7.92266 3.65238,31.19611 -6.97071,33.52149 -5.42999,1.1886 -8.41383,-4.01612 -9.45703,-8.52149 -1.8618,-8.04101 -1.45998,-30.638 9.47071,-32.45703 z m 170.00195,0 c 4.18829,-0.69934 6.47277,2.79127 6.88867,6.46094 0.8858,7.81451 3.63067,32.44684 -6.89062,34.46875 -4.7769,0.91797 -8.0453,-3.21418 -8.7754,-7.47266 -1.37379,-8.01306 -2.36884,-31.59589 8.77735,-33.45703 z m 82.99803,9.45703 c 5.836,5.14581 10.5526,23.95447 5.3965,30.85156 -2.3514,3.14532 -11.1961,5.1676 -12.6445,-0.041 -0.9647,-3.4696 3.7509,-6.03485 3.3906,-9.81445 -0.3129,-3.28247 -1.2434,-5.64295 -0.3574,-8.9961 1.0389,-3.93224 2.1251,-8.53497 4.2148,-12 z m -735.1328,101.1211 c -5.03265,-0.2071 -9.92034,0.0501 -12.26367,1.90625 -11.35375,8.99328 11.97547,9.97265 15.39649,9.97265 h 73 279 82 c 5.51869,0 24.37596,2.9414 27.97265,-1.60351 9.09579,-11.49353 -16.50786,-9.39649 -20.97265,-9.39649 h -82 -277 -72 c -2.92265,0 -8.10017,-0.67181 -13.13282,-0.8789 z"
       sodipodi:nodetypes="sssssssccsssssssssssssccssssccsssssssccssssssssssssccsscssssssccssscsssscsssssssccsscsccsssssssscsssssssssssssccssssscccccsscssscccsssssccsssssssssssscssssssssssscsssscsssccsssccss" /><path
       style="fill:#1a5bb5;stroke:none"
       d="m 493.16252,154.79889 c -9.4956,4.41742 -18.6016,28.16113 -15.3125,37.93207 1.3413,3.9848 9.5173,10.58392 8.0941,14.72223 -1.1035,3.2085 -8.1919,4.80438 -10.7932,6.81018 -6.0614,4.67364 -9.9597,11.00836 -11.4892,18.46759 -4.8389,23.59772 20.5466,43.59143 42.4853,33.51776 6.937,-3.18524 12.6609,-16.32361 19.0934,-17.32025 18.6718,-2.89294 41.7611,0.80249 60.9066,0.80249 8.2159,0 24.6812,-3.15308 31.8557,1.02777 3.7376,2.17804 4.25,7.61261 6.7824,10.87885 5.6294,7.26056 17.3697,9.11053 25.3611,4.79016 10.7628,-5.81867 16.4271,-35.18799 10.1428,-45.69599 -4.203,-7.02777 -12.8991,-12.3078 -19.142,-17.42517 -10.6077,-8.69525 -21.5504,-21.75689 -34,-27.67669 -20.7032,-9.84443 -48.7884,-8.51056 -71,-13.79786 -10.229,-2.43493 -20.6548,-3.65362 -31,-5.56482 -3.7291,-0.6889 -8.2593,-3.20129 -11.9845,-1.46832 m 5.0895,10.625 c 5.4105,-1.80078 13.5615,1.71051 18.895,2.79315 14.1805,2.87854 28.927,4.06739 43,7.41285 3.6094,0.85803 21.47,2.14337 15.8164,9.49841 -2.7897,3.62909 -12.1436,1.30957 -15.8164,0.48303 -14.7015,-3.30847 -30.0967,-5.38458 -45,-7.58099 -2.677,-0.39453 -18.3725,-3.9505 -17.3688,1.59649 0.8939,4.94068 11.7603,4.40064 15.3688,5.10486 17.1748,3.35163 34.6348,5.98352 52,8.1698 14.8592,1.87073 0.9673,21.40808 13.0432,29.90973 5.7857,4.07318 13.2567,2.91974 19.9568,2.91974 h 42 c 7.2057,4.9e-4 18.6777,4.11359 8.8519,12.56635 -6.1564,5.29608 -21.1851,2.43365 -28.8519,2.43365 h -66 c -11.2984,0 -21.5393,2.03131 -29.8302,-7.00385 -8.6512,-9.42773 -16.7796,-19.33245 -25.169,-28.9923 -3.9347,-4.53052 -9.8234,-9.29468 -11.9769,-15.00385 -2.2064,-5.84949 5.054,-22.30103 11.0811,-24.30707 m 143.895,53.30707 c -3.4388,0 -7.7756,0.65784 -10.9105,-1.02777 -8.467,-4.55255 -8.9387,-12.87134 -20.0895,-12.97223 l 9,14 c -10.2292,0 -29.9061,5.26062 -38.581,-1.89349 -6.6914,-5.51831 -0.3558,-20.28736 1.2323,-27.10651 0.677,-2.90735 1.2225,-7.17828 4.493,-8.30634 3.8812,-1.33868 12.3182,1.48127 15.8557,3.25544 12.1207,6.07904 32.003,22.46582 39,34.0509 m -137,9 c -2.3298,1.40686 -24.4169,12.97351 -10.9807,14.47223 6.0036,0.66968 13.1436,-5.08582 18.9807,-6.47223 6.5999,22.97058 -29.8758,32.13513 -38.517,11 -8.0958,-19.80164 21.5859,-41.98962 30.517,-19 m 128.3225,22.60339 c 5.688,-2.86786 23.7358,1.0539 11.6582,7.36884 -5.1957,2.71661 -18.4746,-3.93207 -11.6582,-7.36884 m -46.3225,135.39661 h 1 c 0.7022,2.94156 0.7276,6.13019 1.652,8.99615 1.1118,3.44684 9.9501,12.41782 12.6551,5.68595 3.6078,-8.97873 -1.9957,-18.83118 5.2253,-27.59183 1.6159,-1.96039 5.1797,-5.87683 8.135,-4.75925 4.2385,1.60279 -0.8184,17.29703 -1.6704,20.66898 -4.1656,16.48474 -7.407,33.34344 -10.7979,50 -0.835,4.10187 -5.2977,13.97473 -0.8773,16.97223 4.8604,3.29593 15.912,1.63083 18.0648,-4.01621 4.6636,-12.23281 2.1613,-33.38574 10.4676,-43.63812 4.6743,-5.76938 18.4404,2.15915 19.8981,-7.34646 1.4406,-9.39386 -10.9598,-3.74701 -15.2292,-6.99921 -3.7918,-2.88849 0.256,-15.22064 1.6243,-18.95294 4.0228,-10.97388 32.2387,4.24841 31.1551,-15.87116 -0.2365,-4.39093 -16.5067,-2.72033 -20.3025,-3.07327 -17.4596,-1.62338 -45.1006,-2.14551 -54,16.92514 h -1 c 0.325,-3.72217 5.3003,-13.47574 1.6389,-15.95679 -7.3685,-4.99313 -10.4898,9.93585 -11.9583,13.95679 -6.9679,19.07806 -14.1325,38.45584 -19.6806,58 h -2 c -3.6283,-17.82605 0.4228,-36.88602 -1.7145,-55 -0.5532,-4.68881 1.7558,-14.75092 -2.7191,-17.82098 -4.3654,-2.99488 -13.0164,0.0701 -17.5664,1.41125 -14.3553,4.23135 -40.7054,20.54553 -31.4274,39.39429 1.487,3.02106 8.1629,8.97705 11.3101,4.41128 1.6581,-2.40554 0.017,-7.55291 0.2886,-10.39584 0.6428,-6.72678 3.4315,-12.98083 8.0139,-17.95987 1.8927,-2.05652 6.9946,-7.56107 10.2114,-5.21219 3.9707,2.89932 1.5825,17.67328 1.6042,22.17206 0.066,13.62442 0.9992,27.30634 0.9992,41 0,6.64957 -1.5323,15.50735 0.4337,21.8912 1.7985,5.84009 15.1413,5.57929 19.1728,2.36652 4.4163,-3.51956 6.1064,-12.12497 7.8889,-17.25772 2.4527,-7.06259 5.4444,-13.91705 7.8372,-21 3.5337,-10.46036 7.6764,-20.7103 11.6674,-31 m -102,-18 1,1 c -6.0159,21.39951 -10.5893,44.1322 -14.5756,66 -0.9836,5.39575 -6.1897,17.67187 -3.3071,22.6821 2.0504,3.56384 15.6817,5.49707 19.8827,7.93362 12.8741,7.4668 41.7715,39.49344 53.0949,14.38352 1.1311,-2.50812 3.1957,-7.82386 0.3009,-9.9321 -2.8202,-2.05396 -9.8913,0.10318 -13.3958,-0.35651 -10.5295,-1.38119 -19.7035,-7.46054 -29,-12.10879 -2.9317,-1.46585 -8.1831,-2.66278 -9.686,-5.87653 -2.4877,-5.31976 2.1644,-16.2435 3.2871,-21.72531 3.1963,-15.60709 6.0769,-31.55728 9.9784,-47 1.4676,-5.8093 6.1696,-17.03687 4.5278,-22.85187 -1.5346,-5.43487 -12.2043,-2.58581 -16.1073,-2.03317 -13.7627,1.9487 -31.7052,13.66696 -34.8758,27.88504 -1.0795,4.84116 -1.4616,10.84866 2.1898,14.77161 1.9182,2.06076 7.2073,4.83065 9.4175,1.62423 1.8036,-2.61663 0.2073,-8.25277 0.7083,-11.39584 1.563,-9.80536 7.3691,-18.95685 16.5602,-23 m -342.99998,299 c -0.48389,-9.448 -4.07864,-17.18451 2.01697,-25.95984 1.38092,-1.98804 4.53726,-5.96155 7.41205,-5.30945 4.23898,0.96155 5.38365,14.7204 6.46759,18.26929 3.91018,12.80231 7.33686,26.00946 10.5895,39 1.44906,5.78729 1.9285,14.85199 5.6034,19.68213 7.19124,9.45172 18.78148,-0.26795 20.87114,-7.68213 7.11531,-25.24542 13.74904,-52.98804 17.03935,-79 -10.79294,-2.47351 -10.7,7.73822 -12.4892,16 -3.6083,16.66156 -4.88714,36.30688 -11.5108,52 -9.38817,-21.0434 -13.68739,-46.57104 -19,-69 -14.06566,0 -27.44431,2.84039 -36.28009,15 -7.63077,10.50128 -5.85297,26.82294 9.28009,27 m 99.64893,-40.97223 c -4.4618,3.19446 -10.01088,27.36591 1.16281,20.94367 3.6559,-2.10126 10.32977,-15.41492 9.31094,-19.65357 -0.81253,-3.38037 -8.3284,-2.82605 -10.47375,-1.2901 M 16.14704,668.73096 c -0.28291,-12.09039 -5.32773,-25.29919 9,-32 v 58 c 0,5.09436 -2.23566,17.26569 1.02777,21.39661 2.36702,2.99621 12.20947,3.7406 15.97223,5.54937 12.6119,6.06269 23.81468,20.7862 38,22.84027 7.45044,1.07886 18.68036,-6.77075 15.95678,-15.46838 -1.34305,-4.28894 -12.48066,-2.07013 -15.95678,-2.50305 -9.44277,-1.17609 -18.35095,-7.34222 -27,-10.95294 -3.76992,-1.57379 -8.27599,-2.47602 -9.56636,-6.90589 -1.72962,-5.93774 -0.43364,-13.80334 -0.43364,-19.95599 v -42 c 0,-4.59851 2.44416,-19.03247 -3.14815,-20.68213 -12.54263,-3.69983 -30.43837,7.71338 -35.3225296,18.68213 -4.91539,11.03888 -1.61367,22.68726 11.4706796,24 m 535.99918,-39.14124 c -11.8187,0.88532 -10.7075,19.6883 1.0008,18.80481 11.9075,-0.89849 11.2812,-19.72473 -1.0008,-18.80481 m -287.99918,73.14124 c 4.41046,14.19324 24.37549,18.05518 32,4 13.27371,7.0708 30.41376,15.69019 40.00385,-3 4.69592,-9.15192 0.41717,-23.4657 11.99615,-26 l 1,37 c 3.96909,0 12.13858,1.55261 15.39661,-1.02777 4.4508,-3.52509 1.60131,-21.59027 1.60339,-26.97223 0.002,-4.70715 -0.82312,-20.4718 6.97144,-19.88269 5.02203,0.37952 5.00894,7.3045 5.0278,10.88269 0.0475,8.99951 -0.003,18.00037 7.6e-4,27 0.002,3.29114 -0.88235,8.48547 3.14813,9.68213 21.36365,6.34253 14.55015,-21.80493 14.86655,-34.68213 0.1,-4.073 0.3805,-10.94855 5.0401,-12.59259 4.9432,-1.74408 7.2994,4.95422 7.76,8.59259 1.3227,10.44849 -2.4007,22.30792 2.8696,31.96063 6.0826,11.14044 22.8272,9.52338 28.3156,-0.96063 12.0122,11.46204 32.1599,12.44287 39.6335,-5 3.5716,-8.33588 -0.4449,-21.14404 10.3665,-24 1.5602,8.40393 -0.7595,17.9342 1.919,26 4.5984,13.84711 24.9702,15.19354 35.0656,6.67053 13.4128,-11.32379 16.4843,-44.75268 -0.9884,-54.23688 -4.9525,-2.68823 -11.7257,-1.41217 -16.9962,-0.43365 l -1,-25 c -4.3759,0.0362 -13.0192,-0.20789 -15.9722,3.70294 -6.2838,8.32184 6.1779,31.47669 -5.1458,37.05939 -5.4833,2.70331 -8.103,-9.55859 -11.0919,-12.5733 -7.2993,-7.36249 -22.5178,-5.86945 -29.6057,1.02081 -7.3926,7.18652 -10.0615,18.7843 -10.1805,28.79016 -0.044,3.69147 1.4827,11.78278 -3.1513,13.33795 -10.3404,3.47034 -7.8523,-18.4339 -7.8526,-23.33795 -9e-4,-13.87842 -4.9596,-27.86816 -21.9961,-23.58105 -4.1906,1.05456 -7.239,4.62414 -11.0039,6.58105 -5.7113,-10.4978 -14.69978,-5.43085 -23.99998,-5.67902 -6.28183,-0.1676 -12.56567,-1.32098 -19,-1.32098 0,4.91302 1.716,16.79248 -5.91049,17.10956 -4.72852,0.19659 -6.2992,-8.9715 -8.79862,-11.92438 -5.2673,-6.2229 -15.88708,-7.01147 -23.29089,-4.48303 -18.42123,6.29089 -14.44589,25.78296 -16.71915,40.29706 -0.60989,3.89404 -4.88342,8.01562 -9.0563,6.37811 -4.74408,-1.86163 -4.21802,-9.31342 -4.22455,-13.37732 v -41 c 0,-3.76318 1.86832,-14.45929 -2.3179,-16.38196 -4.0979,-1.88208 -13.6951,0.67359 -14.53397,5.48999 -3.42032,19.63819 10.24365,56.5163 -13.14813,66.75769 -6.23431,2.72956 -20.839,-0.89392 -16.64737,-10.5625 2.26485,-5.22412 14.57637,-6.70916 18.57793,-12.60339 10.90577,-16.06403 -5.0688,-31.91541 -21.93056,-24.61035 -28.66931,12.42047 -18.1505,69.73852 18,58.22302 6.14667,-1.95801 10.58041,-6.8963 15,-11.3125 m 314.99998,5 c 4.2847,8.05975 14.9287,9.56219 22.9854,5.91437 2.7291,-1.23566 5.109,-4.77295 8.1041,-5.15045 4.0142,-0.50599 8.0319,4.77081 11.9105,5.83178 14.8643,4.06586 33.8279,-4.00201 36,-20.5957 -7.5102,1.18329 -11.1138,9.42755 -19,10.98224 -5.5399,1.09216 -16.9923,-4.52265 -12.929,-11.67975 2.4764,-4.36194 11.0702,-5.1499 14.8851,-8.52704 11.4858,-10.16778 8.8315,-29.49188 -7.9561,-30.18054 -21.2335,-0.87103 -25.886,20.72186 -26.0008,37.40509 -0.033,4.73096 -2.0837,12.97211 -8.8518,10.37732 -4.5726,-1.75299 -4.1276,-9.43945 -4.1466,-13.37732 -0.066,-13.66595 -8e-4,-27.33386 -8e-4,-41 0,-4.96783 2.4428,-16.87164 -5.0193,-16.77081 -13.1794,0.17804 -11.9807,8.23217 -11.9807,18.77081 0,11.99707 0.1434,24.00391 0,36 -0.061,4.9823 -1.0019,12.08569 -5.2709,15.39581 -5.939,4.60511 -9.6246,-2.28619 -9.7206,-7.39581 -0.2032,-10.82129 2.7557,-25.48352 -0.3225,-35.85187 -1.2881,-4.33868 -12.9832,-4.57208 -16.0787,-2.12036 -4.3527,3.44751 -1.6033,20.73279 -1.6033,25.97223 0,16.59595 0.2926,39.13898 23.9962,32.5957 4.192,-1.15722 7.2094,-4.62341 11.0038,-6.5957 m -468.99998,-13 c -9.15916,-1.30585 -13.81454,13.73529 -24.99614,9.8125 -3.70257,-1.29895 -10.4519,-7.90088 -7.21528,-12.24921 2.50856,-3.37024 9.67986,-3.99487 13.20679,-6.41363 9.19442,-6.30542 14.1581,-25.16236 1.00077,-30.41126 -28.79709,-11.48803 -44.46455,36.06372 -26.66667,53.64276 14.63508,14.45514 39.41364,3.48353 44.67053,-14.38116 m -33,-11 c 0.008,-3.04401 0.0514,-6.00482 0.66589,-9 0.41183,-2.00739 0.89014,-4.06818 1.57948,-6 1.30412,-3.65472 6.13157,-10.80426 9.72685,-4.84723 5.14772,8.5293 -3.82495,18.75824 -11.97222,19.84723 m 157,0 c 0.008,-3.04144 0.10626,-5.9906 0.59105,-9 0.32619,-2.0249 0.65408,-4.07092 1.375,-6 1.37691,-3.68445 6.40341,-10.80585 10.00616,-4.84723 5.05169,8.35504 -4.01379,18.78333 -11.97221,19.84723 m 390.99998,0 c 0.01,-3.39636 0.066,-6.68854 0.9236,-10 0.5244,-2.02423 1.1933,-4.07098 2.0039,-5.99921 1.256,-2.98773 5.57,-9.58319 8.8943,-4.67828 5.8493,8.63037 -3.3418,19.80267 -11.8218,20.67749 m -304.0009,-21.25769 c 7.52762,-0.95459 3.99533,7.60065 4.43906,11.25769 0.84051,6.92712 9.23199,27.11151 -4.48151,29.45758 -5.26983,0.90155 -7.44693,-4.28174 -8.20215,-8.45758 -1.29766,-7.17529 -2.25055,-30.92688 8.2446,-32.25769 m 142.0077,0.009 c 7.3916,-1.65863 4.5869,7.76196 5.0162,11.23382 0.8734,7.06293 9.8802,27.3067 -5.027,29.39197 -5.3982,0.75513 -7.3783,-5.21759 -8.3202,-9.37732 -1.6148,-7.13135 -1.036,-29.14655 8.331,-31.24847 m 48.2176,1.85266 c 5.2452,-2.33216 9.9077,1.65832 11.4421,6.39966 2.4369,7.52972 4.6786,27.50109 -4.8449,31.39196 -13.332,5.4469 -9.8592,-21.88031 -9.8248,-28.39581 0.017,-3.24866 -0.3361,-7.81134 3.2276,-9.39581 z"
       id="path32" /></g></svg>
